<?xml version="1.0" encoding="UTF-8"?> <svg xmlns="http://www.w3.org/2000/svg" width="79" height="79" viewBox="0 0 79 79"><defs><clipPath id="a"><path d="M39.1111221,0 C60.7116554,0 78.2222442,17.5134048 78.2222442,39.1175234 C78.2222442,60.7211921 60.7116554,78.2348469 39.1111221,78.2348469 C17.5105388,78.2348469 0,60.7211921 0,39.1175234 C0,17.5134048 17.5105388,0 39.1111221,0 Z"></path></clipPath><clipPath id="b"><path d="M22.9080479,0 C35.2954968,0 45.3734763,10.079879 45.3734763,22.4686554 C45.3734763,34.8581316 35.2954968,44.9377606 22.9080479,44.9377606 C19.189444,44.9377606 15.5168764,43.9986837 12.2295954,42.2153674 L0,45.492138 L3.26118877,33.3233328 C1.41493295,29.9915194 0.443069407,26.2581587 0.443069407,22.4686554 C0.443069407,10.079879 10.5212989,0 22.9080479,0 Z M22.9080479,4.24719338 C12.8627587,4.24719338 4.68961775,12.4210721 4.68961775,22.4686554 C4.68961775,25.7865205 5.61104616,29.0530924 7.35408241,31.9163672 L7.82654315,32.6922655 L6.00612971,39.4861251 L12.8375662,37.6552651 L13.6075892,38.1147548 C16.4352058,39.799684 19.6515078,40.6907672 22.9080479,40.6907672 C32.953787,40.6907672 41.1271779,32.5166885 41.1271779,22.4686554 C41.1271779,12.4210721 32.953787,4.24719338 22.9080479,4.24719338 Z M14.0090609,12.8688185 C14.7832827,12.2379511 15.9282952,11.9628872 16.7980388,12.4540228 C17.7438101,12.9884528 18.2337157,14.3350763 18.6723864,15.2792526 C19.0150354,16.0182057 19.4043706,16.9886785 19.2626624,17.8181198 C19.121354,18.648161 18.4649975,19.3475694 17.9417017,19.9633887 C17.5884059,20.3795341 17.5357714,20.7328878 17.8291349,21.181529 C19.5599748,24.0673508 21.9638162,26.1622263 25.1009916,27.4117625 C25.5276658,27.58354 25.859518,27.530047 26.1373861,27.187092 C26.6788265,26.5190795 27.2123193,25.210501 28.0479729,24.8686458 C29.1372519,24.4229042 30.3403973,25.0404733 31.2651747,25.5935008 C32.125821,26.1084833 33.5663964,26.7411004 33.798528,27.8055609 C33.9108449,28.3200935 33.8102745,28.8629223 33.6097336,29.3505084 C32.9318834,30.9964927 31.2479298,32.0539041 29.5400832,32.3782616 C27.908714,32.6878711 26.5627607,32.1684391 25.052106,31.6691546 C23.705053,31.2240129 22.4042364,30.575048 21.1964424,29.8354449 C18.7793548,28.354589 16.6919201,26.3733986 15.0139147,24.0938974 C14.5012158,23.3968887 14.0258559,22.6725336 13.5883349,21.9255815 C13.0082559,20.9352113 12.4929078,19.8941977 12.2229373,18.778444 C12.1108704,18.3147547 12.0516378,17.8353676 12.0465393,17.3548805 C12.0268451,15.6637522 12.671955,13.9576258 14.0090609,12.8688185 Z"></path></clipPath></defs><g transform="translate(.778)"><g clip-path="url(#a)"><polygon fill="#FFF" points="0 0 78.222 0 78.222 78.235 0 78.235 0 0"></polygon></g><g clip-path="url(#b)" transform="translate(16.424 16.371)"><polygon fill="#51B85B" points="0 0 45.373 0 45.373 45.492 0 45.492 0 0"></polygon></g></g></svg> 